<svg width="200" height="97" viewBox="0 0 200 97" fill="none" xmlns="http://www.w3.org/2000/svg">
<path d="M137.734 96.6766L122.876 75.1211H117.905V95.545H111.652V52.9727H125.495C128.059 52.9457 130.608 53.365 133.031 54.2122C135.112 54.9438 136.958 56.2285 138.375 57.9305C139.728 59.6187 140.431 61.7431 140.353 63.9122C140.393 65.3165 140.099 66.7101 139.494 67.976C138.89 69.2419 137.993 70.3431 136.879 71.1872C134.296 73.1002 131.286 74.3404 128.113 74.7977L145.27 95.7605L137.734 96.6766ZM117.905 73.3966H122.02C124.481 73.5426 126.94 73.0801 129.182 72.0494C130.668 71.31 131.87 70.0979 132.603 68.6005C133.237 67.2342 133.566 65.744 133.565 64.2355C133.59 63.7508 133.59 63.2652 133.565 62.7805C133.416 61.8855 133.146 61.0152 132.763 60.1938C132.274 59.1209 131.564 58.1655 130.679 57.3916C129.512 56.4142 128.142 55.7143 126.67 55.3438C125.204 55.3613 123.741 55.4693 122.288 55.6672C120.863 55.8341 119.452 56.1042 118.065 56.4755L117.905 73.3966Z" fill="#231F20"/>
<path d="M164.565 95.3295C162.543 96.4229 160.285 96.9967 157.991 97C155.672 96.9374 153.422 96.1877 151.523 94.8445C149.249 93.292 147.409 91.1766 146.179 88.7011C144.857 86.4292 144.053 83.8887 143.827 81.2645C143.662 79.1513 143.991 77.0285 144.789 75.0673C145.554 73.2951 146.622 71.6719 147.942 70.2712C149.176 69.0029 150.579 67.9146 152.111 67.0378C154.135 65.8995 156.422 65.3231 158.739 65.3673C161.027 65.4177 163.253 66.1284 165.153 67.415C167.421 68.9967 169.259 71.1277 170.497 73.6123C171.804 75.9103 172.606 78.4649 172.849 81.1028C172.965 83.2187 172.619 85.3344 171.833 87.3C171.068 89.0722 170.001 90.6954 168.68 92.0961C167.463 93.3604 166.078 94.4485 164.565 95.3295ZM164.565 92.7967C165.807 92.1766 166.806 91.1511 167.397 89.8867C167.952 88.5964 168.207 87.1959 168.146 85.7911C168.118 84.2928 167.884 82.8056 167.451 81.3722C167.052 79.9489 166.496 78.5751 165.794 77.2767C164.822 75.288 163.541 73.4687 161.999 71.8878C160.702 70.4996 159.029 69.5254 157.189 69.0856C155.222 68.7098 153.188 69.0741 151.47 70.1095C149.73 72.1152 148.83 74.7231 148.958 77.3845C149.055 80.1218 149.787 82.7981 151.096 85.1984C152.091 87.1598 153.35 88.9732 154.837 90.5872C156.104 91.9414 157.683 92.9594 159.434 93.5512C161.176 93.9882 163.019 93.7173 164.565 92.7967Z" fill="#231F20"/>
<path d="M197.221 96.4072L191.876 91.6649C190.512 92.9883 188.985 94.1293 187.333 95.06C185.874 95.9188 184.212 96.3656 182.523 96.3533C180.776 96.3606 179.086 95.7288 177.766 94.575C177.131 94.0023 176.616 93.308 176.25 92.5325C175.884 91.7569 175.675 90.9157 175.636 90.0578C175.596 89.2 175.726 88.3428 176.018 87.5362C176.311 86.7296 176.759 85.9898 177.338 85.36C178.538 84.1542 179.977 83.2177 181.561 82.6116C183.299 81.9502 185.086 81.4277 186.905 81.0489C188.776 80.7255 190.379 80.5099 191.876 80.4022V74.8516C191.876 71.2411 189.791 69.4627 185.729 69.4627C184.491 69.4654 183.256 69.5918 182.042 69.84C180.457 70.0821 178.9 70.4791 177.392 71.0255L176.804 69.4089C177.528 68.8612 178.318 68.4085 179.155 68.0616C180.391 67.4716 181.679 67.0024 183.004 66.6605C184.446 66.2483 185.941 66.0487 187.44 66.0677C189.275 66.0004 191.102 66.3504 192.785 67.0916C193.993 67.6831 194.985 68.6452 195.617 69.84C196.181 70.8944 196.543 72.0459 196.686 73.235C196.686 74.4205 196.686 75.4983 196.686 76.4683V87.2461C196.647 88.4816 196.866 89.7116 197.328 90.8566C197.644 91.677 198.116 92.4274 198.717 93.0661L200 94.1977L197.221 96.4072ZM184.928 93.5511C186.036 93.3616 187.092 92.9393 188.028 92.3116C188.992 91.7749 189.889 91.1236 190.7 90.3716C191.448 89.725 191.822 89.24 191.822 88.9166V82.2883C189.132 82.3429 186.493 83.045 184.126 84.3361C182.255 85.5216 181.293 86.815 181.293 88.1622C181.278 89.397 181.652 90.6049 182.362 91.6111C182.981 92.5258 183.884 93.2079 184.928 93.5511Z" fill="#231F20"/>
<path d="M0 44.135V1.3472H12.1326C15.0583 1.35082 17.9703 1.74956 20.791 2.53276C23.6702 3.33723 26.3847 4.65096 28.8081 6.41275C31.2828 8.25381 33.2962 10.6529 34.6874 13.4183C36.2315 16.6972 36.9825 20.2984 36.8787 23.9266C36.96 27.1077 36.3011 30.2637 34.9546 33.1416C33.6924 35.6249 31.8599 37.7681 29.6099 39.3927C27.3326 41.0415 24.78 42.2645 22.0738 43.0033C19.1952 43.7639 16.2308 44.1443 13.255 44.135H0ZM12.0792 41.9255C15.279 41.9951 18.4491 41.293 21.3255 39.8777C24.0478 38.48 26.2844 36.2812 27.7392 33.5728C29.4213 30.241 30.2309 26.5309 30.0909 22.795C30.1181 19.7346 29.4986 16.7035 28.2737 13.9033C27.1139 11.3415 25.3967 9.07606 23.2496 7.27497C21.1297 5.55101 18.67 4.30184 16.0342 3.61052C14.2458 3.60252 12.4593 3.72861 10.6895 3.98774C9.11582 4.18247 7.56067 4.50689 6.03958 4.95774V41.3327C6.88389 41.5246 7.74155 41.6507 8.60503 41.71C9.85214 41.8537 11.0102 41.9255 12.0792 41.9255Z" fill="#231F20"/>
<path d="M63.1751 44.9971L57.8304 40.2549C56.4667 41.5783 54.9398 42.7193 53.2873 43.6499C51.8282 44.5087 50.1666 44.9555 48.4771 44.9432C46.7303 44.9506 45.0401 44.3187 43.7203 43.1649C42.9996 42.5686 42.4299 41.8081 42.0581 40.946C41.6864 40.084 41.5233 39.1452 41.5824 38.2071C41.5594 36.6238 42.1545 35.0949 43.2393 33.9499C44.4681 32.7549 45.9219 31.8204 47.515 31.2016C49.2448 30.515 51.0341 29.9918 52.8598 29.6388C54.7304 29.3155 56.3339 29.0999 57.8304 28.9921V22.9566C57.8304 19.346 55.7459 17.5677 51.6305 17.5677C50.3921 17.5754 49.1573 17.7017 47.9426 17.9449C46.3605 18.1987 44.8043 18.5955 43.2927 19.1304L42.7582 17.5138C43.4741 16.9535 44.2661 16.4997 45.1099 16.1666C46.3453 15.5766 47.6339 15.1074 48.9581 14.7654C50.3983 14.3358 51.8924 14.118 53.3943 14.1188C55.3232 14.0246 57.2467 14.394 59.0063 15.1966C60.2257 15.7719 61.2218 16.7384 61.839 17.9449C62.4085 18.9928 62.7545 20.1492 62.8545 21.3399C62.9273 22.4164 62.9273 23.4967 62.8545 24.5732V35.351C62.8266 36.5809 63.026 37.8052 63.4424 38.9616C63.7963 39.7749 64.2842 40.5219 64.8854 41.171L66.1682 42.3027L63.1751 44.9971ZM51.3098 41.9254C52.4081 41.7017 53.4579 41.282 54.4098 40.686C55.3624 40.1307 56.2577 39.4808 57.0821 38.746C57.8304 38.0993 58.2045 37.6143 58.2045 37.291V30.6088C55.5094 30.68 52.8705 31.4006 50.5081 32.7105C48.6375 33.896 47.6754 35.1893 47.6754 36.5366C47.6275 37.776 48.005 38.9941 48.7444 39.9854C49.3635 40.9001 50.2656 41.5823 51.3098 41.9254Z" fill="#231F20"/>
<path d="M81.3467 44.9973L68.7332 14.9273H74.3986L83.2708 37.5607L91.6621 14.9273H94.0672L82.2553 44.9973H81.3467Z" fill="#231F20"/>
<path d="M102.191 9.16092C101.748 9.18023 101.306 9.09813 100.899 8.92081C100.492 8.74349 100.13 8.47553 99.8396 8.13702C99.2259 7.50288 98.8823 6.65195 98.8823 5.76591C98.8823 4.87987 99.2259 4.02894 99.8396 3.39481C100.139 3.072 100.504 2.81822 100.91 2.65081C101.316 2.4834 101.753 2.40631 102.191 2.42481C102.619 2.42372 103.043 2.50897 103.438 2.67556C103.832 2.84215 104.19 3.08671 104.49 3.39481C104.813 3.69748 105.072 4.06431 105.248 4.47232C105.425 4.88033 105.516 5.32072 105.516 5.76591C105.516 6.2111 105.425 6.65149 105.248 7.0595C105.072 7.46751 104.813 7.83434 104.49 8.13702C104.201 8.46265 103.846 8.72242 103.45 8.89898C103.054 9.07554 102.625 9.16485 102.191 9.16092ZM99.412 96.407V14.927H104.757V96.407H99.412Z" fill="#231F20"/>
<path d="M136.825 44.9972L131.481 40.255C130.132 41.5658 128.645 42.7224 127.044 43.7039C125.543 44.5479 123.846 44.9756 122.127 44.9433C121.012 44.9127 119.91 44.6941 118.867 44.2967C117.519 43.8503 116.293 43.0939 115.286 42.0872C113.965 40.7803 112.975 39.1723 112.4 37.3989C111.529 34.8535 111.13 32.1682 111.224 29.4772C111.211 27.6574 111.444 25.8442 111.919 24.0883C112.376 22.3353 113.097 20.6632 114.057 19.1306C114.946 17.6435 116.15 16.3736 117.584 15.4122C119.191 14.4323 121.054 13.9629 122.929 14.065C124.294 14.0792 125.648 14.3158 126.938 14.7655C128.567 15.3406 130.127 16.0999 131.588 17.0289V0H136.932V35.4589C136.874 36.7083 137.074 37.9563 137.52 39.1233C137.857 39.9333 138.327 40.6803 138.91 41.3328C139.308 41.7757 139.737 42.1898 140.193 42.5722L136.825 44.9972ZM122.608 42.0333C124.156 41.9059 125.673 41.5236 127.098 40.9017C128.21 40.4159 129.253 39.7815 130.198 39.0155C130.946 38.3689 131.374 37.9378 131.374 37.6144V19.5617C130.332 18.8721 129.221 18.2942 128.06 17.8372C127.11 17.5197 126.12 17.3383 125.12 17.2983C123.499 17.2557 121.926 17.8555 120.738 18.9689C119.438 20.1985 118.465 21.736 117.905 23.4417C117.233 25.4733 116.907 27.6052 116.943 29.7467C116.774 32.7035 117.363 35.6544 118.653 38.315C119.041 39.1734 119.596 39.9447 120.284 40.5833C120.973 41.2219 121.781 41.715 122.662 42.0333H122.608Z" fill="#231F20"/>
</svg>
