<svg width="14" height="14" viewBox="0 0 14 14" fill="none" xmlns="http://www.w3.org/2000/svg">
<g clip-path="url(#clip0_38_96)">
<path fill-rule="evenodd" clip-rule="evenodd" d="M7 10.5C8.93299 10.5 10.5 8.93299 10.5 7C10.5 5.067 8.93299 3.5 7 3.5C5.067 3.5 3.5 5.067 3.5 7C3.5 8.93299 5.067 10.5 7 10.5ZM7 9.33333C8.28864 9.33333 9.33333 8.28864 9.33333 7C9.33333 5.71133 8.28864 4.66667 7 4.66667C5.71133 4.66667 4.66667 5.71133 4.66667 7C4.66667 8.28864 5.71133 9.33333 7 9.33333Z" fill="#0F0F0F"/>
<path d="M10.5001 2.91675C10.1779 2.91675 9.91675 3.17792 9.91675 3.50008C9.91675 3.82224 10.1779 4.08341 10.5001 4.08341C10.8223 4.08341 11.0834 3.82224 11.0834 3.50008C11.0834 3.17792 10.8223 2.91675 10.5001 2.91675Z" fill="#0F0F0F"/>
<path fill-rule="evenodd" clip-rule="evenodd" d="M0.964729 2.49429C0.583252 3.24298 0.583252 4.22307 0.583252 6.18325V7.81658C0.583252 9.77676 0.583252 10.7569 0.964729 11.5055C1.30029 12.1641 1.83572 12.6996 2.49429 13.0351C3.24298 13.4166 4.22307 13.4166 6.18325 13.4166H7.81658C9.77676 13.4166 10.7569 13.4166 11.5055 13.0351C12.1641 12.6996 12.6996 12.1641 13.0351 11.5055C13.4166 10.7569 13.4166 9.77676 13.4166 7.81658V6.18325C13.4166 4.22307 13.4166 3.24298 13.0351 2.49429C12.6996 1.83572 12.1641 1.30029 11.5055 0.964729C10.7569 0.583252 9.77676 0.583252 7.81658 0.583252H6.18325C4.22307 0.583252 3.24298 0.583252 2.49429 0.964729C1.83572 1.30029 1.30029 1.83572 0.964729 2.49429ZM7.81658 1.74992H6.18325C5.18391 1.74992 4.50456 1.75083 3.97947 1.79373C3.46798 1.83552 3.20641 1.91126 3.02394 2.00423C2.5849 2.22794 2.22794 2.5849 2.00423 3.02394C1.91126 3.20641 1.83552 3.46798 1.79373 3.97947C1.75083 4.50456 1.74992 5.18391 1.74992 6.18325V7.81658C1.74992 8.81595 1.75083 9.49524 1.79373 10.0204C1.83552 10.5319 1.91126 10.7935 2.00423 10.9759C2.22794 11.4149 2.5849 11.7719 3.02394 11.9956C3.20641 12.0886 3.46798 12.1643 3.97947 12.2061C4.50456 12.249 5.18391 12.2499 6.18325 12.2499H7.81658C8.81595 12.2499 9.49524 12.249 10.0204 12.2061C10.5319 12.1643 10.7935 12.0886 10.9759 11.9956C11.4149 11.7719 11.7719 11.4149 11.9956 10.9759C12.0886 10.7935 12.1643 10.5319 12.2061 10.0204C12.249 9.49524 12.2499 8.81595 12.2499 7.81658V6.18325C12.2499 5.18391 12.249 4.50456 12.2061 3.97947C12.1643 3.46798 12.0886 3.20641 11.9956 3.02394C11.7719 2.5849 11.4149 2.22794 10.9759 2.00423C10.7935 1.91126 10.5319 1.83552 10.0204 1.79373C9.49524 1.75083 8.81595 1.74992 7.81658 1.74992Z" fill="#0F0F0F"/>
</g>
<defs>
<clipPath id="clip0_38_96">
<rect width="14" height="14" fill="white"/>
</clipPath>
</defs>
</svg>
