<svg width="14" height="14" viewBox="0 0 14 14" fill="none" xmlns="http://www.w3.org/2000/svg">
<path d="M13.125 8.38542V13.125H10.4996V8.70286C10.4996 7.59216 10.1195 6.83384 9.16944 6.83384C8.44362 6.83384 8.01207 7.34478 7.82196 7.83878C7.75274 8.01557 7.73497 8.26133 7.73497 8.50876V13.1248H5.109C5.109 13.1248 5.1441 5.63523 5.109 4.8595H7.73481V6.03087C7.72997 6.03955 7.72265 6.0492 7.71786 6.05773H7.73481V6.03087C8.08365 5.46864 8.70686 4.66513 10.1014 4.66513C11.8298 4.66529 13.125 5.84664 13.125 8.38542ZM2.36116 0.875C1.46296 0.875 0.875 1.49191 0.875 2.3027C0.875 3.09635 1.44559 3.73159 2.32643 3.73159H2.34416C3.25973 3.73159 3.82955 3.09635 3.82955 2.3027C3.81223 1.49186 3.25978 0.875 2.36116 0.875ZM1.03084 13.1249H3.65624V4.85966H1.03084V13.1249Z" fill="#0F0F0F"/>
</svg>
